# xmcd CD database file
# Copyright (C) 1993-1998 Ti Kan
#
# Track frame offsets:
#	183
#	12213
#	25668
#	38353
#	49983
#	63733
#	77200
#	91750
#	102450
#	114763
#	126748
#	140448
#	155505
#	168110
#	184113
#	197590
#	209140
#	221110
#	236335
#	249415
#	262195
#	274645
#
# Disc length: 3807 seconds
#
# Revision: 1
# Processed by: cddbd v1.4b41PL1 Copyright (c) Steve Scherf et al.
# Submitted via: NotifyCDPlayer(CDDB) 1.07
#
DISCID=390edd16
DTITLE=Howlin' Wolf - The Wolf Is At Your Door
DYEAR=1900
DGENRE=
TTITLE0=Howlin' Wolf Boogie
TTITLE1=The Wolf Is At Your Door
TTITLE2=Mr. Highway Man
TTITLE3=Saddle My Pony
TTITLE4=(Well) That's All Right
TTITLE5=My Last Affair
TTITLE6=Mama Died And Left Me
TTITLE7=Crazy About You Baby
TTITLE8=Streamline Woman
TTITLE9=Don't Mess With My Baby
TTITLE10=My Life
TTITLE11=You Ought To Know
TTITLE12=My Baby Told Me
TTITLE13=Change My Way
TTITLE14=I'm Leavin' You
TTITLE15=Howlin' For My Darling
TTITLE16=I've Been Abused
TTITLE17=Mr. Airplane Man
TTITLE18=You Gonna Wreck My Life
TTITLE19=Back Door Man
TTITLE20=Spoonful
TTITLE21=Wang Dang Doodle
EXTD=
EXTT0=
EXTT1=
EXTT2=
EXTT3=
EXTT4=
EXTT5=
EXTT6=
EXTT7=
EXTT8=
EXTT9=
EXTT10=
EXTT11=
EXTT12=
EXTT13=
EXTT14=
EXTT15=
EXTT16=
EXTT17=
EXTT18=
EXTT19=
EXTT20=
EXTT21=
PLAYORDER=
